<svg width="207" height="240" viewBox="0 0 207 240" fill="none" xmlns="http://www.w3.org/2000/svg">
<g clip-path="url(#clip0_964_78)">
<path d="M57.8 194V176.8H96.4C106.667 176.8 115.667 174.6 123.4 170.2C131.133 165.667 137.133 159.467 141.4 151.6C145.8 143.733 148 134.667 148 124.4C148 114.267 145.8 105.267 141.4 97.4C137 89.5333 130.933 83.4 123.2 79C115.467 74.6 106.533 72.4 96.4 72.4H58V55.2H96.8C106.933 55.2 116.267 56.9333 124.8 60.4C133.467 63.8667 140.933 68.7333 147.2 75C153.6 81.2667 158.533 88.6 162 97C165.6 105.4 167.4 114.6 167.4 124.6C167.4 134.467 165.6 143.667 162 152.2C158.533 160.6 153.667 167.933 147.4 174.2C141.133 180.467 133.667 185.333 125 188.8C116.467 192.267 107.2 194 97.2 194H57.8ZM45.4 194V55.2H64.2V194H45.4Z" fill="#FDFDFD"/>
</g>
<defs>
<clipPath id="clip0_964_78">
<rect width="207" height="240" fill="white"/>
</clipPath>
</defs>
</svg>
