<svg width="207" height="240" viewBox="0 0 207 240" fill="none" xmlns="http://www.w3.org/2000/svg">
<g clip-path="url(#clip0_966_84)">
<path d="M105.2 196C95.4667 196 86.3333 194.2 77.8 190.6C69.4 186.867 62 181.733 55.6 175.2C49.3333 168.667 44.4 161.067 40.8 152.4C37.2 143.733 35.4 134.4 35.4 124.4C35.4 114.4 37.2 105.133 40.8 96.6C44.4 87.9333 49.4 80.3333 55.8 73.8C62.2 67.2667 69.6667 62.2 78.2 58.6C86.8667 55 96.2667 53.2 106.4 53.2C117.467 53.2 127.667 55.3333 137 59.6C146.333 63.8667 154.133 70 160.4 78L147.4 91C143 84.6 137.2 79.7333 130 76.4C122.8 72.9333 114.933 71.2 106.4 71.2C96.2667 71.2 87.2667 73.4667 79.4 78C71.6667 82.5333 65.6 88.8 61.2 96.8C56.9333 104.8 54.8 114 54.8 124.4C54.8 134.933 57 144.2 61.4 152.2C65.8 160.2 71.7333 166.467 79.2 171C86.6667 175.533 95.2 177.8 104.8 177.8C114.533 177.8 122.933 175.933 130 172.2C137.2 168.467 142.733 163 146.6 155.8C150.467 148.467 152.4 139.533 152.4 129L163.8 137.2H103.8V120H171.8V122.8C171.8 138.933 168.933 152.467 163.2 163.4C157.6 174.2 149.733 182.333 139.6 187.8C129.6 193.267 118.133 196 105.2 196Z" fill="#FDFDFD"/>
</g>
<defs>
<clipPath id="clip0_966_84">
<rect width="207" height="240" fill="white"/>
</clipPath>
</defs>
</svg>
