<svg width="207" height="240" viewBox="0 0 207 240" fill="none" xmlns="http://www.w3.org/2000/svg">
<g clip-path="url(#clip0_966_90)">
<path d="M70 133.6V117.8H107.6C115.733 117.8 122 115.733 126.4 111.6C130.8 107.467 133 101.867 133 94.8C133 88.1333 130.8 82.6 126.4 78.2C122.133 73.8 115.933 71.6 107.8 71.6H70V55.2H108.4C117.2 55.2 124.867 56.9333 131.4 60.4C137.933 63.7333 142.933 68.3333 146.4 74.2C150 80.0667 151.8 86.8 151.8 94.4C151.8 102.267 150 109.133 146.4 115C142.933 120.867 137.933 125.467 131.4 128.8C124.867 132 117.2 133.6 108.4 133.6H70ZM57.4 194V55.2H76.2V194H57.4ZM137.4 194L87 131.8L104.8 125.6L161.2 194H137.4Z" fill="#FDFDFD"/>
</g>
<defs>
<clipPath id="clip0_966_90">
<rect width="207" height="240" fill="white"/>
</clipPath>
</defs>
</svg>
