<svg width="207" height="240" viewBox="0 0 207 240" fill="none" xmlns="http://www.w3.org/2000/svg">
<g clip-path="url(#clip0_966_80)">
<path d="M103 196C92.0667 196 82.7333 194 75 190C67.2667 186 60.4 180.2 54.4 172.6L67.2 159.8C71.6 165.933 76.6667 170.6 82.4 173.8C88.1333 176.867 95.2 178.4 103.6 178.4C111.867 178.4 118.467 176.6 123.4 173C128.467 169.4 131 164.467 131 158.2C131 153 129.8 148.8 127.4 145.6C125 142.4 121.733 139.8 117.6 137.8C113.6 135.667 109.2 133.8 104.4 132.2C99.6 130.467 94.8 128.667 90 126.8C85.2 124.8 80.8 122.4 76.8 119.6C72.8 116.667 69.5333 112.867 67 108.2C64.6 103.533 63.4 97.6667 63.4 90.6C63.4 82.7333 65.2667 76.0667 69 70.6C72.8667 65 78.0667 60.7333 84.6 57.8C91.2667 54.7333 98.7333 53.2 107 53.2C116.067 53.2 124.2 55 131.4 58.6C138.6 62.0667 144.467 66.6667 149 72.4L136.2 85.2C132.067 80.4 127.6 76.8 122.8 74.4C118.133 72 112.733 70.8 106.6 70.8C99.1333 70.8 93.2 72.4667 88.8 75.8C84.4 79 82.2 83.5333 82.2 89.4C82.2 94.0667 83.4 97.8667 85.8 100.8C88.3333 103.6 91.6 106 95.6 108C99.6 110 104 111.867 108.8 113.6C113.733 115.2 118.6 117 123.4 119C128.2 121 132.6 123.533 136.6 126.6C140.6 129.667 143.8 133.667 146.2 138.6C148.733 143.4 150 149.467 150 156.8C150 169.067 145.733 178.667 137.2 185.6C128.8 192.533 117.4 196 103 196Z" fill="#FDFDFD"/>
</g>
<defs>
<clipPath id="clip0_966_80">
<rect width="207" height="240" fill="white"/>
</clipPath>
</defs>
</svg>
